<?xml version="1.0" standalone="no"?>
<!DOCTYPE svg PUBLIC "-//W3C//DTD SVG 20010904//EN"
 "http://www.w3.org/TR/2001/REC-SVG-20010904/DTD/svg10.dtd">
<svg version="1.0" xmlns="http://www.w3.org/2000/svg"
 width="700.000000pt" height="700.000000pt" viewBox="0 0 700.000000 700.000000"
 preserveAspectRatio="xMidYMid meet">
<metadata>
Created by potrace 1.11, written by Peter Selinger 2001-2013
</metadata>
<g transform="translate(0.000000,700.000000) scale(0.100000,-0.100000)"
fill="#000000" stroke="none">
<path d="M3927 6884 c-3 -4 -22 -6 -127 -19 -30 -3 -63 -8 -72 -11 -16 -5 -40
-10 -86 -20 -60 -12 -196 -60 -272 -96 -182 -86 -358 -231 -474 -390 -31 -42
-56 -79 -56 -82 0 -3 -13 -27 -30 -54 -67 -110 -144 -339 -179 -533 -29 -166
-31 -200 -37 -574 -3 -187 -7 -345 -9 -352 -2 -6 -12 -12 -22 -11 -24 1 -244
-13 -264 -17 -9 -2 -65 -7 -125 -11 -60 -4 -122 -8 -139 -10 -16 -1 -38 -3
-47 -3 -17 -1 -18 -27 -18 -406 l0 -405 23 -1 c12 0 151 -1 310 -1 l287 0 1
-1017 c0 -559 0 -1409 0 -1889 l1 -872 543 0 543 0 0 1879 c0 1034 2 1884 6
1889 3 6 167 10 418 10 227 0 429 1 448 1 l35 1 -1 423 c-1 232 -2 425 -3 428
0 3 -202 5 -447 5 -245 -1 -448 3 -451 7 -7 12 -6 564 2 638 6 63 19 151 29
199 21 96 79 210 146 283 99 108 227 156 413 155 60 -1 129 -5 155 -10 112
-21 192 -43 265 -70 43 -17 80 -28 81 -26 3 2 72 271 110 428 2 8 25 96 50
195 25 99 42 182 38 186 -28 23 -335 108 -467 128 -38 6 -86 13 -105 17 -37 7
-467 14 -473 8z"/>
</g>
</svg>
